name rise37.2698peak67.6939fall79.5734.mot
datacolumns 19
datarows 26
range 3.46998800000000 3.51165100000000
endheader
time	ground_force1_vx	ground_force1_vy	ground_force1_vz	ground_force1_px	ground_force1_py	ground_force1_pz	ground_force2_vx	ground_force2_vy	ground_force2_vz	ground_force2_px	ground_force2_py	ground_force2_pz	ground_torque1_x	ground_torque1_y	ground_torque1_z	ground_torque2_x	ground_torque2_y	ground_torque2_z	
3.46998800000000	-5.34745100000000	46.43122300000000	-13.81808100000000	0.33227100000000	0.00000000000000	0.06685700000000	-61.83522300000000	814.55823899999996	-51.88569800000000	0.12924200000000	0.00000000000000	-0.09605500000000	0.00000000000000	-10.16924100000000	0.00000000000000	0.00000000000000	-22.42532500000000	0.00000000000000	
3.47165700000000	-5.63024800000000	53.14843100000000	-15.24682500000000	0.33731100000000	0.00000000000000	0.06776500000000	-62.73167400000000	811.60468600000002	-51.54836800000000	0.12838700000000	0.00000000000000	-0.09600300000000	0.00000000000000	-11.32130000000000	0.00000000000000	0.00000000000000	-22.45385200000000	0.00000000000000	
3.47332500000000	-5.78228700000000	59.81822200000000	-16.51295700000000	0.34195900000000	0.00000000000000	0.06861500000000	-63.63672400000000	808.49909300000002	-51.18801800000000	0.12753600000000	0.00000000000000	-0.09594800000000	0.00000000000000	-12.36815500000000	0.00000000000000	0.00000000000000	-22.48272900000000	0.00000000000000	
3.47499000000000	-5.79535200000000	66.37437000000000	-17.59487600000000	0.34626900000000	0.00000000000000	0.06941300000000	-64.54904600000000	805.23888999999997	-50.80423500000000	0.12669000000000	0.00000000000000	-0.09589000000000	0.00000000000000	-13.29140800000000	0.00000000000000	0.00000000000000	-22.51167200000000	0.00000000000000	
3.47665400000000	-5.66713100000000	72.77565400000000	-18.48182900000000	0.35028100000000	0.00000000000000	0.07016600000000	-65.46719899999999	801.82151999999996	-50.39664000000000	0.12584700000000	0.00000000000000	-0.09582900000000	0.00000000000000	-14.08070700000000	0.00000000000000	0.00000000000000	-22.54037200000000	0.00000000000000	
3.47831700000000	-5.40062200000000	79.00539499999999	-19.17318000000000	0.35403300000000	0.00000000000000	0.07088000000000	-66.38963500000000	798.24445200000002	-49.96489000000000	0.12501000000000	0.00000000000000	-0.09576300000000	0.00000000000000	-14.73336900000000	0.00000000000000	0.00000000000000	-22.56850200000000	0.00000000000000	
3.47998500000000	-5.00319500000000	85.06904800000000	-19.67696300000000	0.35755200000000	0.00000000000000	0.07156000000000	-67.31469900000000	794.50518599999998	-49.50868200000000	0.12417900000000	0.00000000000000	-0.09569400000000	0.00000000000000	-15.25343300000000	0.00000000000000	0.00000000000000	-22.59571600000000	0.00000000000000	
3.48165500000000	-4.48547400000000	90.99039000000000	-20.00798200000000	0.36086500000000	0.00000000000000	0.07220800000000	-68.24063099999999	790.60126700000001	-49.02775600000000	0.12335300000000	0.00000000000000	-0.09562200000000	0.00000000000000	-15.65032600000000	0.00000000000000	0.00000000000000	-22.62164700000000	0.00000000000000	
3.48332400000000	-3.86013000000000	96.80686000000000	-20.18568300000000	0.36399200000000	0.00000000000000	0.07282900000000	-69.16557100000000	786.53029300000003	-48.52189900000000	0.12253300000000	0.00000000000000	-0.09554500000000	0.00000000000000	-15.93731000000000	0.00000000000000	0.00000000000000	-22.64591200000000	0.00000000000000	
3.48498600000000	-3.14073400000000	102.56459000000000	-20.23202000000000	0.36695100000000	0.00000000000000	0.07342500000000	-70.08756200000001	782.28992500000004	-47.99094700000000	0.12172100000000	0.00000000000000	-0.09546400000000	0.00000000000000	-16.12988800000000	0.00000000000000	0.00000000000000	-22.66811100000000	0.00000000000000	
3.48665500000000	-2.34072500000000	108.31358800000000	-20.16948600000000	0.36975700000000	0.00000000000000	0.07399800000000	-71.00455200000000	777.87789999999995	-47.43478700000000	0.12091500000000	0.00000000000000	-0.09538000000000	0.00000000000000	-16.24429500000000	0.00000000000000	0.00000000000000	-22.68783000000000	0.00000000000000	
3.48832200000000	-1.47257300000000	114.10341699999999	-20.01944100000000	0.37242300000000	0.00000000000000	0.07455000000000	-71.91440500000000	773.29204600000003	-46.85336500000000	0.12011800000000	0.00000000000000	-0.09529100000000	0.00000000000000	-16.29619500000000	0.00000000000000	0.00000000000000	-22.70464000000000	0.00000000000000	
3.48998600000000	-0.54716200000000	119.97964200000000	-19.80081500000000	0.37496100000000	0.00000000000000	0.07508400000000	-72.81489900000000	768.53028600000005	-46.24668000000000	0.11932800000000	0.00000000000000	-0.09519800000000	0.00000000000000	-16.29963700000000	0.00000000000000	0.00000000000000	-22.71810000000000	0.00000000000000	
3.49165100000000	0.42660000000000	125.98116800000000	-19.52921900000000	0.37737800000000	0.00000000000000	0.07560000000000	-73.70374000000000	763.59065899999996	-45.61479600000000	0.11854700000000	0.00000000000000	-0.09510000000000	0.00000000000000	-16.26632600000000	0.00000000000000	0.00000000000000	-22.72775900000000	0.00000000000000	
3.49332600000000	1.44194700000000	132.13853200000000	-19.21647000000000	0.37968500000000	0.00000000000000	0.07610000000000	-74.57855900000000	758.47133199999996	-44.95783600000000	0.11777500000000	0.00000000000000	-0.09499900000000	0.00000000000000	-16.20519500000000	0.00000000000000	0.00000000000000	-22.73315700000000	0.00000000000000	
3.49498800000000	2.49422900000000	138.47309000000001	-18.87047900000000	0.38188700000000	0.00000000000000	0.07658500000000	-75.43692900000001	753.17061100000001	-44.27599100000000	0.11701200000000	0.00000000000000	-0.09489200000000	0.00000000000000	-16.12226100000000	0.00000000000000	0.00000000000000	-22.73382600000000	0.00000000000000	
3.49665900000000	3.58072700000000	144.99701099999999	-18.49545400000000	0.38399200000000	0.00000000000000	0.07705600000000	-76.27636500000000	747.68696100000000	-43.56951700000000	0.11626000000000	0.00000000000000	-0.09478200000000	0.00000000000000	-16.02073300000000	0.00000000000000	0.00000000000000	-22.72929400000000	0.00000000000000	
3.49831900000000	4.70036300000000	151.71392800000001	-18.09234700000000	0.38600200000000	0.00000000000000	0.07751300000000	-77.09433500000000	742.01901699999996	-42.83873800000000	0.11551700000000	0.00000000000000	-0.09466600000000	0.00000000000000	-15.90131600000000	0.00000000000000	0.00000000000000	-22.71908400000000	0.00000000000000	
3.49999100000000	5.85332700000000	158.62007000000000	-17.65945600000000	0.38792500000000	0.00000000000000	0.07795900000000	-77.88826800000000	736.16560300000003	-42.08405000000000	0.11478500000000	0.00000000000000	-0.09454600000000	0.00000000000000	-15.76264100000000	0.00000000000000	0.00000000000000	-22.70271800000000	0.00000000000000	
3.50166200000000	7.04068000000000	165.70570799999999	-17.19312500000000	0.38976100000000	0.00000000000000	0.07839300000000	-78.65556100000001	730.12574600000005	-41.30591700000000	0.11406300000000	0.00000000000000	-0.09442100000000	0.00000000000000	-15.60178300000000	0.00000000000000	0.00000000000000	-22.67971800000000	0.00000000000000	
3.50332000000000	8.26396200000000	172.95674900000000	-16.68845300000000	0.39151600000000	0.00000000000000	0.07881500000000	-79.39358900000001	723.89869299999998	-40.50487700000000	0.11335300000000	0.00000000000000	-0.09429200000000	0.00000000000000	-15.41480300000000	0.00000000000000	0.00000000000000	-22.64961000000000	0.00000000000000	
3.50498900000000	9.52483100000000	180.35632799999999	-16.13997700000000	0.39319200000000	0.00000000000000	0.07922700000000	-80.09971299999999	717.48392699999999	-39.68153700000000	0.11265400000000	0.00000000000000	-0.09415700000000	0.00000000000000	-15.19727000000000	0.00000000000000	0.00000000000000	-22.61192200000000	0.00000000000000	
3.50666000000000	10.82476000000000	187.88629000000000	-15.54226900000000	0.39479000000000	0.00000000000000	0.07962900000000	-80.77129100000001	710.88118199999997	-38.83657600000000	0.11196600000000	0.00000000000000	-0.09401800000000	0.00000000000000	-14.94472700000000	0.00000000000000	0.00000000000000	-22.56619100000000	0.00000000000000	
3.50832400000000	12.16479100000000	195.52846099999999	-14.89042700000000	0.39631200000000	0.00000000000000	0.08002100000000	-81.40568500000001	704.09045700000001	-37.97074800000000	0.11129000000000	0.00000000000000	-0.09387400000000	0.00000000000000	-14.65308400000000	0.00000000000000	0.00000000000000	-22.51196100000000	0.00000000000000	
3.50999100000000	13.54537200000000	203.26567299999999	-14.18044300000000	0.39776100000000	0.00000000000000	0.08040300000000	-82.00027200000000	697.11203000000000	-37.08487400000000	0.11062600000000	0.00000000000000	-0.09372500000000	0.00000000000000	-14.31890800000000	0.00000000000000	0.00000000000000	-22.44878700000000	0.00000000000000	
3.51165100000000	14.96625800000000	211.08249699999999	-13.40943800000000	0.39913600000000	0.00000000000000	0.08077700000000	-82.55245400000000	689.94646599999999	-36.17984600000000	0.10997300000000	0.00000000000000	-0.09357100000000	0.00000000000000	-13.93962800000000	0.00000000000000	0.00000000000000	-22.37623700000000	0.00000000000000	
